<svg width="354" height="208" viewBox="0 0 354 208" fill="none" xmlns="http://www.w3.org/2000/svg">
<path d="M1 2.40431C1.6 -0.195693 14.2 2.40431 40 2.40431C50.6 2.40431 66.5 1.90431 83 1.40431C85.7 11.6043 110.1 31.4043 111 30.4043C120 32.5043 127.1 34.7043 132 36.4043C133.2 36.6043 149.6 42.7043 152 37.4043C153 37.1043 153.7 38.0043 155 38.4043C155.8 38.6043 156.3 38.5043 160 37.4043C163.6 36.3043 163.7 36.3043 164 36.4043C166.4 37.5043 165.5 44.8043 165 47.4043C162.8 60.4043 167.3 59.8043 166 76.4043C166 76.4043 164.6 95.1043 155 115.404C150.7 128.604 142 129.404 141 138.404C141.3 141.604 144.7 143.604 146 144.404C149.6 146.704 151.9 150.504 155 153.404C170.1 167.404 172.2 186.204 171 161.404C171.4 153.204 173.5 149.404 171 146.404C165.4 143.404 160.4 139.304 161 131.404C162.8 114.404 184.8 114.704 188 130.404C190.2 144.504 183.3 140.204 179 146.404C178.8 149.704 179.9 155.304 180 157.404C180.5 159.304 179.1 173.504 180 172.404C181.5 173.104 185.1 164.704 193 156.404C202.9 146.104 211.2 144.904 211 139.404C210.9 136.204 208.1 136.204 203 128.404C190.3 103.304 190.5 106.004 186 66.4043C185 58.8043 186.2 51.0043 185 43.4043C184.7 41.7043 184.1 38.0043 186 36.4043C186.4 36.1043 187.6 35.3043 193 36.4043C206.8 42.5043 223.8 36.4043 231 33.4043C237.9 30.6043 251.4 25.2043 257 16.4043C259.9 11.8043 264.3 8.20431 267 3.40431C267.2 3.10431 267.8 2.00431 269 1.40431C270.6 0.604307 272.3 1.20431 273 1.40431C280.1 1.40431 341.4 1.40431 339 1.40431C343.4 1.80431 346.2 1.30431 349 1.40431C345.2 0.304307 338.3 11.1043 338 11.4043L350 2.40431C341.3 7.20431 319.3 25.5043 310 46.4043C294.4 74.3043 305.3 72.6043 300 85.4043C297.1 88.4043 291.9 86.9043 286 86.4043C258.8 84.6043 224.4 103.004 219 122.404C203.9 103.004 205.2 112.104 214 126.404C220.2 135.004 226.2 136.104 226 140.404C225.8 143.904 221.8 145.204 215 150.404C199.5 164.604 193.1 170.304 182 194.404C176.5 211.704 175.5 211.304 169 194.404C164.2 182.604 149.2 156.004 132 147.404C115.7 139.104 128.7 139.704 135 127.404C139 121.304 144.6 112.804 144 112.404C143.4 112.004 138.8 121.704 133 121.404C128 121.204 127.2 113.704 119 105.404C106.9 93.4043 77.9 83.9043 61 86.4043C51.2 87.3043 51.4 89.5043 49 77.4043C47.8 63.5043 45.8 51.7043 37 37.4043C21.3 12.4043 9.5 11.3043 1 2.40431Z" fill="#D4C9F5" stroke="#C4B5ED" stroke-miterlimit="10"/>
</svg>
